<svg xmlns="http://www.w3.org/2000/svg" version="1.1" xmlns:xlink="http://www.w3.org/1999/xlink" width="1000" height="1000"><style>
    #light-icon {
      display: inline;
    }
    #dark-icon {
      display: none;
    }

    @media (prefers-color-scheme: dark) {
      #light-icon {
        display: none;
      }
      #dark-icon {
        display: inline;
      }
    }
  </style><g id="light-icon"><svg xmlns="http://www.w3.org/2000/svg" version="1.1" xmlns:xlink="http://www.w3.org/1999/xlink" width="1000" height="1000"><g><g transform="matrix(1.597137928831534,0,0,1.597137928831534,78.84271385676868,0)"><svg xmlns="http://www.w3.org/2000/svg" version="1.1" xmlns:xlink="http://www.w3.org/1999/xlink" width="527.39" height="626.12"><svg xmlns="http://www.w3.org/2000/svg" xmlns:xlink="http://www.w3.org/1999/xlink" version="1.1" id="Layer_1" x="0px" y="0px" enable-background="new 0 0 1024 1024" xml:space="preserve" viewBox="249.29 199.9 527.39 626.12">
<path fill="#000000" opacity="1.000000" stroke="none" d=" M762.040894,801.983887   C748.427307,818.576965 730.895020,825.964478 710.082581,825.975708   C616.752930,826.026001 523.423218,826.025696 430.093567,826.014771   C394.095062,826.010559 358.096100,826.018250 322.098358,825.828308   C311.634491,825.773071 301.104370,825.749207 291.129669,821.597534   C266.309296,811.266907 252.016602,793.177368 249.559296,766.073669   C248.379395,753.059387 251.065292,740.876404 257.015625,729.425415   C289.740356,666.448120 322.581390,603.531189 355.338409,540.570679   C375.022949,502.736115 394.616455,464.854279 414.294708,427.016479   C415.421631,424.849609 415.713623,422.650299 415.714355,420.281769   C415.728760,373.950195 415.763489,327.618652 415.826874,281.287109   C415.830414,278.687836 415.765259,276.440979 412.865509,275.099060   C397.481842,267.979828 388.386261,247.896225 393.268555,230.220551   C398.371674,211.745285 412.281738,200.214340 431.956970,200.114853   C486.286682,199.840103 540.619568,199.822235 594.949219,200.100174   C613.643066,200.195801 627.937988,212.100174 632.342712,229.730209   C636.904480,247.988907 629.706726,265.348694 613.515320,274.569397   C610.965698,276.021332 610.046326,277.688232 610.049011,280.497681   C610.093567,326.995636 610.092773,373.493683 610.020752,419.991577   C610.015015,423.704895 611.554626,426.748138 613.163696,429.848846   C635.647278,473.175537 658.111328,516.512329 680.630066,559.820740   C709.834351,615.987366 739.358093,671.990173 768.187805,728.348145   C781.112427,753.614014 779.444580,778.480408 762.040894,801.983887  M376.466980,565.912354   C356.741516,603.904480 337.049957,641.914185 317.277252,679.881653   C306.351624,700.860901 295.162140,721.703369 284.322296,742.726440   C271.073425,768.421753 288.983063,795.354126 315.694824,795.237366   C447.507935,794.661133 579.325073,795.018921 711.140808,795.032898   C714.633423,795.033264 718.110474,794.959473 721.536133,793.965088   C741.511230,788.166931 751.606201,765.009338 742.674072,744.927063   C740.242737,739.460571 737.122681,734.302063 734.354004,728.983826   C715.354126,692.487732 696.358948,655.989136 677.371277,619.486755   C645.545471,558.303894 613.732178,497.114624 581.887085,435.941833   C580.395935,433.077423 579.570862,430.194855 579.564209,426.896301   C579.454163,371.918396 579.167175,316.940674 579.133972,261.962799   C579.124390,246.071777 577.703796,248.041306 592.976746,248.370361   C599.193848,248.504303 603.533936,244.929504 603.612183,239.597458   C603.685242,234.620041 599.624634,231.203674 593.387146,231.001953   C592.721191,230.980423 592.054138,230.993469 591.387573,230.993622   C539.227966,231.005402 487.068329,231.016632 434.908691,231.033997   C433.409821,231.034500 431.901764,231.007004 430.413818,231.153610   C425.842896,231.604050 422.419556,235.497604 422.604309,239.939270   C422.785126,244.286453 426.081543,247.616684 430.676697,247.870590   C433.668121,248.035873 436.674164,247.923309 439.673157,247.967514   C446.383575,248.066391 446.382843,248.082306 446.381561,254.645523   C446.370697,310.638092 446.316010,366.630768 446.430603,422.623108   C446.441498,427.959137 445.383423,432.718018 442.937164,437.432739   C420.842865,480.014923 398.849365,522.649414 376.466980,565.912354  z"></path>
<path fill="#000000" opacity="1.000000" stroke="none" d=" M600.320801,649.286621   C605.393555,646.810059 610.136780,644.510315 614.960388,642.171631   C613.760559,640.062195 611.846130,639.696289 610.276245,638.916931   C595.355469,631.510193 580.443848,624.082031 565.424683,616.878662   C562.293457,615.376831 560.887695,613.603516 560.999023,610.051147   C561.231140,602.640503 561.069275,595.217529 561.069275,587.273071   C566.975464,588.533142 570.906189,591.134155 575.013062,593.146057   C598.052612,604.432312 620.971863,615.964233 643.985962,627.303040   C647.023804,628.799744 648.596497,630.594299 648.406189,634.188110   C648.124634,639.505981 648.266724,644.850769 648.355103,650.181946   C648.394592,652.566467 647.781738,654.242249 645.441772,655.382080   C618.489075,668.511841 591.573914,681.718567 564.637268,694.881348   C563.931274,695.226318 563.095947,695.306702 561.935120,695.611938   C561.198242,687.048218 560.883118,678.814758 561.154968,670.549011   C561.246948,667.751709 563.418457,667.111938 565.334229,666.185181   C576.880981,660.599792 588.437805,655.035034 600.320801,649.286621  z"></path>
<path fill="#000000" opacity="1.000000" stroke="none" d=" M416.181335,672.927002   C404.483826,667.185791 393.174225,661.501160 381.722961,656.117920   C378.527893,654.615784 377.328094,652.779114 377.520966,649.244446   C377.820068,643.765015 377.659058,638.250610 377.467346,632.758911   C377.386597,630.445129 378.087097,629.100586 380.202057,628.063293   C407.115173,614.863098 433.992188,601.589417 460.889038,588.356018   C461.596313,588.008057 462.423706,587.904175 464.313110,587.371033   C464.313110,593.239319 463.698029,598.695801 464.453278,603.955444   C465.671509,612.439514 462.271545,616.754333 454.545929,620.053711   C441.702332,625.539001 429.366241,632.214294 416.829742,638.415283   C415.100250,639.270813 413.168396,639.903015 412.003815,641.684631   C413.378723,643.600098 415.418457,644.039551 417.154480,644.907227   C431.456757,652.054810 445.746765,659.229187 460.132263,666.206177   C463.280609,667.733154 464.492188,669.696838 464.384308,673.176758   C464.158447,680.464233 464.315857,687.763611 464.315857,696.424683   C447.717499,688.324463 432.116577,680.710999 416.181335,672.927002  z"></path>
<path fill="#000000" opacity="1.000000" stroke="none" d=" M496.607605,717.574890   C495.769104,721.002075 493.955444,722.299622 490.737213,722.221924   C484.123596,722.062256 477.503448,722.173889 471.114563,722.173889   C469.875336,719.238037 471.241028,717.286743 471.958832,715.368347   C490.677124,665.340942 509.487823,615.348022 528.175903,565.309387   C529.230713,562.485107 530.611023,561.469177 533.609436,561.566467   C540.353699,561.785095 547.109924,561.634949 554.786987,561.634949   C535.211121,614.117310 515.985168,665.661377 496.607605,717.574890  z"></path>
</svg></svg></g></g></svg></g><g id="dark-icon"><svg xmlns="http://www.w3.org/2000/svg" version="1.1" xmlns:xlink="http://www.w3.org/1999/xlink" width="1000" height="1000"><g clip-path="url(#SvgjsClipPath1073)"><rect width="1000" height="1000" fill="#ffffff"></rect><g transform="matrix(1.4374241359483806,0,0,1.4374241359483806,120.95844247109181,49.99999999999994)"><svg xmlns="http://www.w3.org/2000/svg" version="1.1" xmlns:xlink="http://www.w3.org/1999/xlink" width="527.39" height="626.12"><svg xmlns="http://www.w3.org/2000/svg" xmlns:xlink="http://www.w3.org/1999/xlink" version="1.1" id="Layer_1" x="0px" y="0px" enable-background="new 0 0 1024 1024" xml:space="preserve" viewBox="249.29 199.9 527.39 626.12">
<path fill="#000000" opacity="1.000000" stroke="none" d=" M762.040894,801.983887   C748.427307,818.576965 730.895020,825.964478 710.082581,825.975708   C616.752930,826.026001 523.423218,826.025696 430.093567,826.014771   C394.095062,826.010559 358.096100,826.018250 322.098358,825.828308   C311.634491,825.773071 301.104370,825.749207 291.129669,821.597534   C266.309296,811.266907 252.016602,793.177368 249.559296,766.073669   C248.379395,753.059387 251.065292,740.876404 257.015625,729.425415   C289.740356,666.448120 322.581390,603.531189 355.338409,540.570679   C375.022949,502.736115 394.616455,464.854279 414.294708,427.016479   C415.421631,424.849609 415.713623,422.650299 415.714355,420.281769   C415.728760,373.950195 415.763489,327.618652 415.826874,281.287109   C415.830414,278.687836 415.765259,276.440979 412.865509,275.099060   C397.481842,267.979828 388.386261,247.896225 393.268555,230.220551   C398.371674,211.745285 412.281738,200.214340 431.956970,200.114853   C486.286682,199.840103 540.619568,199.822235 594.949219,200.100174   C613.643066,200.195801 627.937988,212.100174 632.342712,229.730209   C636.904480,247.988907 629.706726,265.348694 613.515320,274.569397   C610.965698,276.021332 610.046326,277.688232 610.049011,280.497681   C610.093567,326.995636 610.092773,373.493683 610.020752,419.991577   C610.015015,423.704895 611.554626,426.748138 613.163696,429.848846   C635.647278,473.175537 658.111328,516.512329 680.630066,559.820740   C709.834351,615.987366 739.358093,671.990173 768.187805,728.348145   C781.112427,753.614014 779.444580,778.480408 762.040894,801.983887  M376.466980,565.912354   C356.741516,603.904480 337.049957,641.914185 317.277252,679.881653   C306.351624,700.860901 295.162140,721.703369 284.322296,742.726440   C271.073425,768.421753 288.983063,795.354126 315.694824,795.237366   C447.507935,794.661133 579.325073,795.018921 711.140808,795.032898   C714.633423,795.033264 718.110474,794.959473 721.536133,793.965088   C741.511230,788.166931 751.606201,765.009338 742.674072,744.927063   C740.242737,739.460571 737.122681,734.302063 734.354004,728.983826   C715.354126,692.487732 696.358948,655.989136 677.371277,619.486755   C645.545471,558.303894 613.732178,497.114624 581.887085,435.941833   C580.395935,433.077423 579.570862,430.194855 579.564209,426.896301   C579.454163,371.918396 579.167175,316.940674 579.133972,261.962799   C579.124390,246.071777 577.703796,248.041306 592.976746,248.370361   C599.193848,248.504303 603.533936,244.929504 603.612183,239.597458   C603.685242,234.620041 599.624634,231.203674 593.387146,231.001953   C592.721191,230.980423 592.054138,230.993469 591.387573,230.993622   C539.227966,231.005402 487.068329,231.016632 434.908691,231.033997   C433.409821,231.034500 431.901764,231.007004 430.413818,231.153610   C425.842896,231.604050 422.419556,235.497604 422.604309,239.939270   C422.785126,244.286453 426.081543,247.616684 430.676697,247.870590   C433.668121,248.035873 436.674164,247.923309 439.673157,247.967514   C446.383575,248.066391 446.382843,248.082306 446.381561,254.645523   C446.370697,310.638092 446.316010,366.630768 446.430603,422.623108   C446.441498,427.959137 445.383423,432.718018 442.937164,437.432739   C420.842865,480.014923 398.849365,522.649414 376.466980,565.912354  z"></path>
<path fill="#000000" opacity="1.000000" stroke="none" d=" M600.320801,649.286621   C605.393555,646.810059 610.136780,644.510315 614.960388,642.171631   C613.760559,640.062195 611.846130,639.696289 610.276245,638.916931   C595.355469,631.510193 580.443848,624.082031 565.424683,616.878662   C562.293457,615.376831 560.887695,613.603516 560.999023,610.051147   C561.231140,602.640503 561.069275,595.217529 561.069275,587.273071   C566.975464,588.533142 570.906189,591.134155 575.013062,593.146057   C598.052612,604.432312 620.971863,615.964233 643.985962,627.303040   C647.023804,628.799744 648.596497,630.594299 648.406189,634.188110   C648.124634,639.505981 648.266724,644.850769 648.355103,650.181946   C648.394592,652.566467 647.781738,654.242249 645.441772,655.382080   C618.489075,668.511841 591.573914,681.718567 564.637268,694.881348   C563.931274,695.226318 563.095947,695.306702 561.935120,695.611938   C561.198242,687.048218 560.883118,678.814758 561.154968,670.549011   C561.246948,667.751709 563.418457,667.111938 565.334229,666.185181   C576.880981,660.599792 588.437805,655.035034 600.320801,649.286621  z"></path>
<path fill="#000000" opacity="1.000000" stroke="none" d=" M416.181335,672.927002   C404.483826,667.185791 393.174225,661.501160 381.722961,656.117920   C378.527893,654.615784 377.328094,652.779114 377.520966,649.244446   C377.820068,643.765015 377.659058,638.250610 377.467346,632.758911   C377.386597,630.445129 378.087097,629.100586 380.202057,628.063293   C407.115173,614.863098 433.992188,601.589417 460.889038,588.356018   C461.596313,588.008057 462.423706,587.904175 464.313110,587.371033   C464.313110,593.239319 463.698029,598.695801 464.453278,603.955444   C465.671509,612.439514 462.271545,616.754333 454.545929,620.053711   C441.702332,625.539001 429.366241,632.214294 416.829742,638.415283   C415.100250,639.270813 413.168396,639.903015 412.003815,641.684631   C413.378723,643.600098 415.418457,644.039551 417.154480,644.907227   C431.456757,652.054810 445.746765,659.229187 460.132263,666.206177   C463.280609,667.733154 464.492188,669.696838 464.384308,673.176758   C464.158447,680.464233 464.315857,687.763611 464.315857,696.424683   C447.717499,688.324463 432.116577,680.710999 416.181335,672.927002  z"></path>
<path fill="#000000" opacity="1.000000" stroke="none" d=" M496.607605,717.574890   C495.769104,721.002075 493.955444,722.299622 490.737213,722.221924   C484.123596,722.062256 477.503448,722.173889 471.114563,722.173889   C469.875336,719.238037 471.241028,717.286743 471.958832,715.368347   C490.677124,665.340942 509.487823,615.348022 528.175903,565.309387   C529.230713,562.485107 530.611023,561.469177 533.609436,561.566467   C540.353699,561.785095 547.109924,561.634949 554.786987,561.634949   C535.211121,614.117310 515.985168,665.661377 496.607605,717.574890  z"></path>
</svg></svg></g></g><defs><clipPath id="SvgjsClipPath1073"><rect width="1000" height="1000" x="0" y="0" rx="150" ry="150"></rect></clipPath></defs></svg></g></svg>